<svg width="24" height="23" viewBox="0 0 24 23" fill="none" xmlns="http://www.w3.org/2000/svg">
<path d="M12.9375 7.9375C12.7717 7.9375 12.6128 8.00335 12.4956 8.12056C12.3783 8.23777 12.3125 8.39674 12.3125 8.5625V9.8125C12.3125 9.97826 12.3783 10.1372 12.4956 10.2544C12.6128 10.3717 12.7717 10.4375 12.9375 10.4375V11.375L14.0625 10.4375H15.4375C15.6033 10.4375 15.7622 10.3717 15.8794 10.2544C15.9967 10.1372 16.0625 9.97826 16.0625 9.8125V8.5625C16.0625 8.39674 15.9967 8.23777 15.8794 8.12056C15.7622 8.00335 15.6033 7.9375 15.4375 7.9375H12.9375ZM10.125 9.5C9.79348 9.5 9.47554 9.6317 9.24112 9.86612C9.0067 10.1005 8.875 10.4185 8.875 10.75C8.875 11.0815 9.0067 11.3995 9.24112 11.6339C9.47554 11.8683 9.79348 12 10.125 12C10.4565 12 10.7745 11.8683 11.0089 11.6339C11.2433 11.3995 11.375 11.0815 11.375 10.75C11.375 10.4185 11.2433 10.1005 11.0089 9.86612C10.7745 9.6317 10.4565 9.5 10.125 9.5ZM11.6875 12.625H8.5625C8.31386 12.625 8.0754 12.7238 7.89959 12.8996C7.72377 13.0754 7.625 13.3139 7.625 13.5625C7.625 14.26 7.91187 14.8187 8.3825 15.1969C8.84562 15.5687 9.46688 15.75 10.125 15.75C10.7831 15.75 11.4044 15.5687 11.8675 15.1969C12.3375 14.8187 12.625 14.26 12.625 13.5625C12.625 13.3139 12.5262 13.0754 12.3504 12.8996C12.1746 12.7238 11.9361 12.625 11.6875 12.625Z" fill="#333333"/>
<path d="M1 11.0557C3.64264 2.58969 7.07421 0.936649 16 2.55569" stroke="#00FF00"/>
<path d="M1.5 16C5.5662 22.4027 8.94275 23.0682 16 21.5" stroke="#FFA500"/>
<path d="M18.5 20C23.8672 14.6407 22.4322 10.7037 19.3693 4.1552" stroke="#FF0000"/>
<path d="M1 15.5V17L2.5 15.5H1Z" stroke="#FFA500"/>
<path d="M18.0654 20.5637L19.564 20.4986L18.0003 19.0651L18.0654 20.5637Z" stroke="#FF0000"/>
<path d="M16.8018 3.24194L16.2428 1.84996L15.4098 3.80087L16.8018 3.24194Z" stroke="#00FF00"/>
</svg>

